<?xml version="1.0" encoding="utf-8"?>
<!-- Generator: Adobe Illustrator 23.0.3, SVG Export Plug-In . SVG Version: 6.00 Build 0)  -->
<svg version="1.1" id="Capa_1" xmlns="http://www.w3.org/2000/svg" xmlns:xlink="http://www.w3.org/1999/xlink" x="0px" y="0px"
	 viewBox="0 0 510.1 510.1" style="enable-background:new 0 0 510.1 510.1;" xml:space="preserve">
<style type="text/css">
	.st0{fill:#4A148C;}
</style>
<g>
	<g>
		<path class="st0" d="M34.8,429h81.2v69.6c0,3.4,1.1,6.2,3.3,8.3c2.2,2.2,5,3.3,8.3,3.3H188c3.1,0,5.9-1.1,8.2-3.3
			c2.3-2.2,3.4-4.9,3.4-8.3V429h183c3.4,0,6.2-1.1,8.3-3.3c2.2-2.2,3.3-5,3.3-8.3V371c0-3.4-1.1-6.2-3.3-8.3c-2.2-2.2-5-3.3-8.3-3.3
			h-183v-42.8h123.2c48.3,0,87.7-14.7,118.3-44.2c30.6-29.4,45.8-67.5,45.8-114.1c0-46.6-15.3-84.6-45.8-114.1
			C410.5,14.7,371.1,0,322.8,0H127.5c-3.4,0-6.2,1.1-8.3,3.3c-2.2,2.2-3.3,5-3.3,8.3v227.9H34.8c-3.4,0-6.2,1.1-8.3,3.4
			c-2.2,2.3-3.3,5-3.3,8.2v54c0,3.4,1.1,6.2,3.3,8.3c2.2,2.2,4.9,3.3,8.3,3.3h81.2v42.8H34.8c-3.4,0-6.2,1.1-8.3,3.3
			c-2.2,2.2-3.3,5-3.3,8.3v46.4c0,3.4,1.1,6.2,3.3,8.3C28.6,427.9,31.4,429,34.8,429z M199.6,77.2h115.9c25.6,0,46.2,7.5,62,22.5
			c15.7,15,23.5,34.5,23.5,58.7c0,24.2-7.9,43.7-23.5,58.7c-15.7,15-36.4,22.5-62,22.5H199.6V77.2z"/>
	</g>
</g>
</svg>
